# xmcd
#
# Track frame offsets:
#   150
#   24160
#   41560
#   55527
#   84447
#   108487
#   128640
#   152552
#   173622
#   193507
#   201207
#   219182
#
# Disc length: 3476 seconds
#
# Revision: 9
# Processed by: cddbd v1.5.1PL0 Copyright (c) Steve Scherf et al.
# Submitted via: Media_Universe 3.0
#
DISCID=8b0d920c
DTITLE=Megadeth - megadeth - The World Needs A Hero
DYEAR=2001
DGENRE=Metal
TTITLE0=Disconnect - megadeth
TTITLE1=The World Needs A Hero - megadeth
TTITLE2=Moto Psycho - megadeth
TTITLE3=1000 Times Goodbye - megadeth
TTITLE4=Burning Bridges - megadeth
TTITLE5=Promises - megadeth
TTITLE6=Recipe For Hate...Warhorse - megadeth
TTITLE7=Losing My Senses - megadeth
TTITLE8=Dread And The Fugitive Mind - megadeth
TTITLE9=Silent Scorn - megadeth
TTITLE10=Return To Hangar - megadeth
TTITLE11=When - megadeth
EXTD=YEAR: 2001 ID3G: 9
EXTT0=
EXTT1=
EXTT2=
EXTT3=
EXTT4=
EXTT5=
EXTT6=
EXTT7=
EXTT8=
EXTT9=
EXTT10=
EXTT11=
PLAYORDER=
